# xmcd CD database file
#
# Track frame offsets:
#	150
#	14243
#	27912
#	42381
#	57377
#	70561
#	80519
#	94955
#	106496
#	120714
#	134188
#	147862
#	160997
#	175464
#	190624
#	205366
#	219283
#	232778
#	247047
#
# Disc length: 3504 seconds
#
# Revision: 0
# Processed by: cddbd v1.4PL0 Copyright (c) Steve Scherf et al.
# Submitted via: CDex 1.40Release
#
DISCID=1a0dae13
DTITLE=Josh White - Presenting...Josh White
DYEAR=1900
DGENRE=Blues
TTITLE0=Apples, Peaches and Cherries
TTITLE1=Bad Depression Blues
TTITLE2=Black and Evil Blues
TTITLE3=Fare Thee Well
TTITLE4=Frankie and Johnny
TTITLE5=Free and Equal Blues (pt.1)
TTITLE6=Howlin' Wolf Blues
TTITLE7=I Gave My Love a Cherry
TTITLE8=John Henry
TTITLE9=Little Brother Blues
TTITLE10=Nobody Wants to Know You When Your're Down and Out
TTITLE11=Prison Bound
TTITLE12=The Foggy Foggy Dew
TTITLE13=House of the Rising Sun
TTITLE14=The Lass with the Delicate Air
TTITLE15=I'm Gonna Move to the Outskirts of Town
TTITLE16=Hard Time Blues
TTITLE17=Strange Fruit
TTITLE18=Lord, I Want to Die Easy
EXTD=ID3G: 0
EXTT0=
EXTT1=
EXTT2=
EXTT3=
EXTT4=
EXTT5=
EXTT6=
EXTT7=
EXTT8=
EXTT9=
EXTT10=
EXTT11=
EXTT12=
EXTT13=
EXTT14=
EXTT15=
EXTT16=
EXTT17=
EXTT18=
PLAYORDER=
